<?xml version="1.0" encoding="utf-8"?>
<!-- Generator: Adobe Illustrator 24.1.1, SVG Export Plug-In . SVG Version: 6.00 Build 0)  -->
<svg version="1.1" id="Layer_1" xmlns="http://www.w3.org/2000/svg" xmlns:xlink="http://www.w3.org/1999/xlink" x="0px" y="0px"
	 viewBox="0 0 756.7 344.1" style="enable-background:new 0 0 756.7 344.1;" xml:space="preserve">
<style type="text/css">
	.st0{font-family:'MyriadPro-Regular';}
	.st1{font-size:32px;}
</style>
<path d="M162,322.1l34.7-22.7c-62-0.7-151.4-10.7-152.7-48.7c-0.7-20,23.3-42,23.3-42c0-12.7,1.3-62,1.3-62
	c-51.3,38-69.2,79.3-68.7,102c0.7,27.3,11,58.3,70,79.3c46.7,16.7,124,16,124,16L162,322.1z"/>
<path d="M550,23.4l-44.7,23.3c0,0-98.7,10-141.3,24.7c-23.3,0-149.3,0-149.3,0C252,50.1,434,2.1,504.7,2.1
	C515.3,7.4,550,23.4,550,23.4z"/>
<g>
	<path d="M167.6,156.9c3.4-3,5-11.3,5-25.1c0-11.5-1.4-19.2-4.1-23.1c-2.7-3.9-8.7-5.9-18-5.9h-10.7v0v58.5h7.8
		C157.6,161.3,164.2,159.9,167.6,156.9z"/>
	<path d="M149.9,168.5h-10.1v66.3h7.7c12.1,0,19.8-2.1,23.2-6.3c3.4-4.2,5.1-14,5.1-29.3c0-12.2-2-20.4-6-24.5
		C165.9,170.5,159.2,168.5,149.9,168.5z"/>
	<path d="M292.2,104.4c-3.2-1-7.8-1.5-13.7-1.5h-7.3v63.5h6.9c6,0,10.6-0.5,13.9-1.6c3.3-1.1,5.9-3.9,8-8.5c2.1-4.6,3.1-11.9,3.1-22
		c0-9.9-1-17.1-3.1-21.6C298.1,108.2,295.4,105.4,292.2,104.4z"/>
	<path d="M65.4,65.5v208.7h614.5V65.5H65.4z M199,230.8c-9,7.4-22.3,11.1-39.8,11.1H89.7v-7.1h17.1V102.8H89.7v-7.1h71.6
		c16.6,0,28.4,3.5,35.6,10.4c7.1,6.9,10.7,14.9,10.7,23.9c0,7.6-2.8,14.7-8.2,21.3c-5.5,6.7-15.1,11-28.8,13v0.4
		c27.9,3.9,41.9,16.1,41.9,36.6C212.5,213.6,208,223.4,199,230.8z M324.8,161.7c-8.9,7.8-24.7,11.8-47.4,11.8h-6v61.3h19.4v7.1
		h-69.1v-7.1h16.8V102.8h-16.8v-7.1h64c19,0,32.5,3.8,40.6,11.5c8.1,7.7,12.1,16.7,12.1,27C338.2,144.7,333.7,153.9,324.8,161.7z
		 M513.3,103.6h-18.6v131.9h18.6v7.1h-73v-7.1h19V111.3l-41.9,131.3h-5.1L370,109.7v110.8c0,6.1,0.8,10.1,2.3,12.1
		c1.5,1.9,5.7,2.9,12.5,2.9h5.1v7.1h-48.4v-7.1h8.9c5.6,0,9.1-0.9,10.3-2.8c1.2-1.9,1.8-5.7,1.8-11.4V103.6h-21v-7.1H402l27,84.6
		l27.3-84.6h57V103.6z M657.7,103.6h-5.1c-5.5,0-8.9,0.8-10.3,2.5c-1.4,1.7-2.1,5-2.1,10v128.5h-7.5l-86.1-128.5v105.5
		c0,5.9,0.6,9.7,1.8,11.3s4.6,2.5,10.1,2.5h8.4v7.1h-45.8v-7.1h5.7c5.8,0,9.3-1,10.4-2.9s1.7-7.2,1.7-15.6V116.1
		c0-5.5-0.5-9-1.6-10.4c-1-1.4-4.1-2.1-9.1-2.1h-7.9v-7.1h54.5l57.6,86v-62.9c0-6.6-0.6-10.9-1.9-12.9c-1.3-2-4.7-3-10.3-3h-6.8
		v-7.1h43.9V103.6z"/>
</g>
<path d="M582.2,22.6L533.6,0.1c117.1-1.5,208.8,16.4,221.8,81.4s-66,129-205,188s-294,72-330,74c-6-4-32-21-32-21l37.6-24.3
	c116.9-11.3,214.5-29,306.5-69.4s181.5-91.9,179.8-137.9s-121.8-50-171-46C559,36.1,582.2,22.6,582.2,22.6z"/>
<text transform="matrix(1 0 0 1 693.2888 269.9112)" class="st0 st1">TM</text>
</svg>
