<?xml version="1.0" encoding="utf-8"?>
<!-- Generator: Adobe Illustrator 24.1.1, SVG Export Plug-In . SVG Version: 6.00 Build 0)  -->
<svg version="1.1" id="Ebene_1" xmlns="http://www.w3.org/2000/svg" xmlns:xlink="http://www.w3.org/1999/xlink" x="0px" y="0px"
	 viewBox="0 0 1000 1000" style="enable-background:new 0 0 1000 1000;" xml:space="preserve">
<style type="text/css">
	.st0{font-family:'MyriadPro-Regular';}
	.st1{font-size:42.2777px;}
</style>
<path d="M214.18,698.3l45.84-29.99c-81.91-0.92-200.03-14.14-201.74-64.34c-0.92-26.42,30.78-55.49,30.78-55.49
	c0-16.78,1.72-81.91,1.72-81.91C23,516.77-0.65,571.33,0.01,601.32c0.92,36.07,14.53,77.02,92.48,104.77
	c61.7,22.06,163.83,21.14,163.83,21.14L214.18,698.3z"/>
<path d="M726.79,303.66l-59.06,30.78c0,0-130.4,13.21-186.68,32.63c-30.78,0-197.25,0-197.25,0
	c49.28-28.14,289.73-91.56,383.14-91.56C680.95,282.52,726.79,303.66,726.79,303.66z"/>
<g>
	<path d="M221.58,480.04c4.49-3.96,6.61-14.93,6.61-33.16c0-15.19-1.85-25.37-5.42-30.52c-3.57-5.15-11.49-7.79-23.78-7.79h-14.14
		l0,0v77.29h10.31C208.36,485.85,217.08,484,221.58,480.04z"/>
	<path d="M198.19,495.36h-13.34v87.59h10.17c15.99,0,26.16-2.77,30.65-8.32s6.74-18.5,6.74-38.71c0-16.12-2.64-26.95-7.93-32.37
		C219.33,498.01,210.48,495.36,198.19,495.36z"/>
	<path d="M386.19,410.68c-4.23-1.32-10.31-1.98-18.1-1.98h-9.64v83.89h9.12c7.93,0,14-0.66,18.36-2.11
		c4.36-1.45,7.79-5.15,10.57-11.23c2.77-6.08,4.1-15.72,4.1-29.07c0-13.08-1.32-22.59-4.1-28.54
		C393.99,415.7,390.42,412,386.19,410.68z"/>
	<path d="M86.55,359.28v275.73h811.86V359.28H86.55z M263.06,577.67c-11.89,9.78-29.46,14.67-52.58,14.67h-91.82v-9.38h22.59v-174.4
		h-22.59v-9.38h94.6c21.93,0,37.52,4.62,47.03,13.74c9.38,9.12,14.14,19.69,14.14,31.58c0,10.04-3.7,19.42-10.83,28.14
		c-7.27,8.85-19.95,14.53-38.05,17.18v0.53c36.86,5.15,55.36,21.27,55.36,48.36C280.9,554.95,274.95,567.9,263.06,577.67z
		 M429.26,486.38c-11.76,10.31-32.63,15.59-62.62,15.59h-7.93v80.99h25.63v9.38h-91.29v-9.38h22.2v-174.4h-22.2v-9.38h84.56
		c25.1,0,42.94,5.02,53.64,15.19s15.99,22.06,15.99,35.67C446.97,463.92,441.02,476.07,429.26,486.38z M678.31,409.62h-24.57v174.26
		h24.57v9.38h-96.45v-9.38h25.1V419.79l-55.36,173.47h-6.74l-55.89-175.58v146.39c0,8.06,1.06,13.34,3.04,15.99
		c1.98,2.51,7.53,3.83,16.51,3.83h6.74v9.38h-63.95v-9.38h11.76c7.4,0,12.02-1.19,13.61-3.7c1.59-2.51,2.38-7.53,2.38-15.06v-155.5
		h-27.74v-9.38h79.93l35.67,111.77L603,400.24h75.31V409.62z M869.09,409.62h-6.74c-7.27,0-11.76,1.06-13.61,3.3
		c-1.85,2.25-2.77,6.61-2.77,13.21v169.77h-9.91L722.3,426.13v139.38c0,7.79,0.79,12.82,2.38,14.93c1.59,2.11,6.08,3.3,13.34,3.3
		h11.1v9.38h-60.51v-9.38h7.53c7.66,0,12.29-1.32,13.74-3.83s2.25-9.51,2.25-20.61V426.13c0-7.27-0.66-11.89-2.11-13.74
		c-1.32-1.85-5.42-2.77-12.02-2.77h-10.44v-9.38h72l76.1,113.62v-83.1c0-8.72-0.79-14.4-2.51-17.04c-1.72-2.64-6.21-3.96-13.61-3.96
		h-8.98v-9.38h58v9.25H869.09z"/>
</g>
<path d="M769.34,302.6l-64.21-29.73c154.71-1.98,275.86,21.67,293.04,107.54c17.18,85.88-87.2,170.43-270.84,248.38
	s-388.43,95.12-435.99,97.77c-7.93-5.28-42.28-27.74-42.28-27.74l49.68-32.1c154.45-14.93,283.39-38.31,404.94-91.69
	s239.79-121.42,237.55-182.19S780.3,326.78,715.3,332.07C738.68,320.44,769.34,302.6,769.34,302.6z"/>
<text transform="matrix(1 0 0 1 916.1035 629.346)" class="st0 st1">TM</text>
</svg>
