<?xml version="1.0" encoding="utf-8"?>
<!-- Generator: Adobe Illustrator 24.1.1, SVG Export Plug-In . SVG Version: 6.00 Build 0)  -->
<svg version="1.1" id="Layer_1" xmlns="http://www.w3.org/2000/svg" xmlns:xlink="http://www.w3.org/1999/xlink" x="0px" y="0px"
	 viewBox="0 0 160 160" style="enable-background:new 0 0 160 160;" xml:space="preserve">
<g>
	<path d="M110.8,100.2C85.7,130,49.6,151,31.6,141c0.6,1.1,1.3,2.1,2,3c2.5,1.8,5,3.4,7.6,4.9c16.7,5.1,49.8-11,74.6-40.6
		C140.7,78.7,149,45.6,141.2,30c-1.9-2.3-3.9-4.5-6.1-6.6c-1.1-0.6-2.2-1.1-3.3-1.5C142.5,34.1,135.9,70.4,110.8,100.2z"/>
	<path d="M41.6,84.6C30,48.9,44,19,55.6,6.9C54,6.4,52.5,6.3,51,6.5c-1.5,0.6-3,1.2-4.6,1.9C35.6,17,20.5,50.9,32.9,89.3
		s47.9,67.7,61.8,68.3c1.6-0.3,3.2-0.7,4.9-1.1c1.3-0.7,2.5-1.7,3.5-3C86.6,150.5,53.2,120.5,41.6,84.6z"/>
	<path d="M153.8,108.4c-2-9.9-25.2-32.8-57.9-53.2C63,34.8,31.6,23.9,21.9,26.5c-1.1,1.2-2.2,2.5-3.3,3.7c0,0.6,0.2,1.3,0.4,2.1
		c-1.3,2.3-3.5,6.1-4.7,8.3c1.8-1.9,5.1-3.5,7.1-3.5c14.8-0.7,42.7,7.8,70.2,24.9s46.9,38,52.9,51.6c1,3.6-2,6.4-2,6.4l6.6-5.4
		l0.1-0.9c1.1-0.1,1.9-0.3,2.6-0.6C152.5,111.5,153.1,109.9,153.8,108.4z"/>
	<path d="M117.4,18c35.8,21.6,48.2,66.8,27.5,101.1l2.8,1.7c22.5-37.4,10.4-85.9-26.9-108.5C83.4-10.2,34.8,1.9,12.3,39.2l2.8,1.7
		C35.8,6.7,81.5-3.6,117.4,18z"/>
	<path d="M39.2,147.7c37.4,22.5,85.9,10.5,108.5-26.9l-2.8-1.7c-20.6,34.2-65.3,43.4-101.1,21.8C7.9,119.4-5.5,75.2,15.2,41
		l-2.8-1.7C-10.2,76.7,1.9,125.2,39.2,147.7z"/>
	<path d="M130.8,19.6c-0.8-0.7-1.7-1.3-2.5-2c-1.9-1.5-3.8-2.8-5.8-4.1c-18.7-9.1-55.3,4-81.1,34.8s-31.9,68.3-19.7,85.2
		c1.6,1.7,3.3,3.4,5,5c0.8,0.8,1.6,1.5,2.5,2.2c1.5,1.2,3,2.4,4.5,3.5c-0.8-0.9-1.5-1.9-2-3c-8.3-15.4,4.8-49.2,29.9-79
		s53.7-45.5,70.3-40.1c1.2,0.4,2.3,0.9,3.3,1.5C133.8,22.1,132.4,20.8,130.8,19.6z"/>
	<path d="M128.7,65.2c-12.2-37.9-45.1-62.7-62-63c-2.2,0.4-4.3,0.8-6.6,1.4c-1.5,0.4-3,0.8-4.4,1.3c-1.6,0.5-3.1,1.1-4.6,1.7
		c1.5-0.2,3-0.1,4.6,0.4c13.6,4,42,28.7,53.6,64.5s2.6,70.9-6.1,82.1c-1,1.3-2.2,2.3-3.5,3c1.6-0.4,3.2-0.9,4.7-1.3
		c1.5-0.5,2.9-1,4.4-1.6c2.1-0.8,4.1-1.7,6.1-2.7C128.3,140.8,140.9,103,128.7,65.2z"/>
	<path d="M11.3,40.9c-0.4,0.8-0.9,1.5-1.2,2.3c-4,12,13.7,45.9,49.2,68s75.8,24.1,84.7,15.2c0.5-0.7,1-1.4,1.5-2.2
		c0.6-0.8,1.1-1.7,1.6-2.5c1.8-2.9,3.3-5.7,4.7-8.7c-16.1,6.3-51-6.8-78.5-23.9S16.8,42.9,18.5,30.2c-2,2.5-4,5.2-5.7,8.1
		C12.4,39.2,11.8,40.1,11.3,40.9z"/>
</g>
</svg>
